<?xml version="1.0" encoding="iso-8859-1"?>
<!-- Uploaded to: SVG Repo, www.svgrepo.com, Generator: SVG Repo Mixer Tools -->
<!DOCTYPE svg PUBLIC "-//W3C//DTD SVG 1.1//EN" "http://www.w3.org/Graphics/SVG/1.1/DTD/svg11.dtd">
<svg fill="#000000" version="1.1" id="Capa_1" xmlns="http://www.w3.org/2000/svg" xmlns:xlink="http://www.w3.org/1999/xlink" 
	 width="800px" height="800px" viewBox="0 0 185.29 185.29"
	 xml:space="preserve">
<g>
	<g>
		<g>
			<path d="M175.222,0H82.796c-0.053,0-0.096,0.029-0.147,0.029c-0.383,0.017-0.761,0.084-1.126,0.228
				c-0.037,0.014-0.08,0.017-0.118,0.034c-0.012,0.003-0.026,0.003-0.036,0.011l-22.23,9.879L36.906,0.301
				c-0.01-0.004-0.024-0.004-0.034-0.011c-0.039-0.017-0.082-0.021-0.12-0.034c-0.365-0.144-0.739-0.21-1.118-0.224
				C35.582,0.032,35.536,0,35.484,0H10.078C8.143,0,6.574,1.571,6.574,3.504v164.264c0,1.937,1.569,3.504,3.504,3.504h24.445
				l22.827,13.524c0.01,0.007,0.021,0.011,0.028,0.014c0.008,0.004,0.015,0.011,0.022,0.018c0.167,0.092,0.351,0.146,0.525,0.215
				c0.101,0.041,0.2,0.096,0.305,0.131c0.294,0.075,0.599,0.116,0.903,0.116c0.306,0,0.611-0.041,0.905-0.116
				c0.101-0.031,0.193-0.09,0.291-0.124c0.182-0.064,0.368-0.123,0.539-0.219c0.007-0.003,0.014-0.01,0.022-0.017
				c0.007-0.007,0.017-0.007,0.027-0.011l22.828-13.527h91.465c1.934,0,3.505-1.571,3.505-3.505V3.504
				C178.726,1.571,177.155,0,175.222,0z M13.586,7.008h18.397v157.255H13.586V7.008z M38.992,8.894l16.646,7.397v159.341
				l-16.646-9.863V8.894z M62.646,16.294l16.646-7.397v156.878l-16.646,9.863V16.294z M171.717,164.263H86.3V7.008h85.417V164.263z"
				/>
		</g>
		<g>
			<path d="M126.161,120.679c1.235,0,2.379-0.654,3.009-1.711c2.676-4.487,26.124-44.265,26.124-58.958
				c0-16.06-13.069-29.131-29.133-29.131S97.028,43.947,97.028,60.011c0,14.693,23.445,54.47,26.122,58.958
				C123.783,120.029,124.926,120.679,126.161,120.679z M126.161,37.888c12.2,0,22.124,9.924,22.124,22.123
				c0,9.49-13.976,35.94-22.124,50.2c-8.145-14.26-22.124-40.71-22.124-50.2C104.044,47.812,113.961,37.888,126.161,37.888z"/>
		</g>
		<g>
			<path d="M138.427,59.573c0-6.762-5.503-12.265-12.266-12.265c-6.766,0-12.265,5.503-12.265,12.265
				c0,6.764,5.499,12.265,12.265,12.265C132.924,71.838,138.427,66.336,138.427,59.573z M120.905,59.573
				c0-2.897,2.357-5.256,5.256-5.256s5.257,2.359,5.257,5.256c0,2.898-2.358,5.256-5.257,5.256S120.905,62.471,120.905,59.573z"/>
		</g>
	</g>
</g>
</svg>