<?xml version="1.0" encoding="iso-8859-1"?>
<!-- Uploaded to: SVG Repo, www.svgrepo.com, Generator: SVG Repo Mixer Tools -->
<svg height="800px" width="800px" version="1.1" id="Layer_1" xmlns="http://www.w3.org/2000/svg" xmlns:xlink="http://www.w3.org/1999/xlink" 
	 viewBox="0 0 512 512" xml:space="preserve">
<circle style="fill:#273B7A;" cx="256" cy="256" r="256"/>
<path style="fill:#121149;" d="M61.218,261.854l245.174,245.174c100.164-19.997,179.233-98.435,200.152-198.263l-44.153-44.153
	l-7.009,4.012l-36.523-36.709l-19.768,13.222L256,102.047l-45.737,111.595L61.218,261.854z"/>
<path style="fill:#38C6D9;" d="M432.126,331.319c22.216,0,40.224-18.01,40.224-40.224c0-22.214-18.01-40.224-40.224-40.224
	c-0.412,0-0.819,0.019-1.227,0.031c-6.809-19.422-25.293-33.354-47.042-33.354c-25.943,0-47.249,19.82-49.621,45.144
	c-18.666,0.34-33.702,15.551-33.702,34.299c0,18.96,15.37,34.33,34.33,34.33h97.263V331.319z"/>
<path style="fill:#02B2B2;" d="M432.126,250.87c-0.412,0-0.819,0.019-1.227,0.031c-6.809-19.422-25.293-33.354-47.042-33.354
	c-0.29,0-0.574,0.016-0.862,0.021v113.752h49.131c22.216,0,40.224-18.01,40.224-40.224
	C472.35,268.881,454.342,250.87,432.126,250.87z"/>
<path style="fill:#38C6D9;" d="M185.034,274.43c22.216,0,40.224-18.01,40.224-40.224s-18.01-40.224-40.224-40.224
	c-0.412,0-0.819,0.019-1.227,0.031c-6.809-19.422-25.293-33.354-47.042-33.354c-25.943,0-47.249,19.82-49.621,45.144
	c-18.666,0.336-33.702,15.548-33.702,34.295c0,18.96,15.37,34.33,34.33,34.33h97.263V274.43z"/>
<path style="fill:#02B2B2;" d="M185.034,193.981c-0.412,0-0.819,0.019-1.227,0.031c-6.718-19.163-24.809-32.954-46.18-33.32V274.43
	h47.407c22.216,0,40.224-18.01,40.224-40.224S207.248,193.981,185.034,193.981z"/>
<polygon style="fill:#EAA22F;" points="162.621,292.511 256,382.707 346.505,292.511 "/>
<polygon style="fill:#E09112;" points="256,292.511 256,382.707 346.505,292.511 "/>
<polygon style="fill:#FFEDB5;" points="256,102.041 122.397,308.048 241.347,308.048 "/>
<polygon style="fill:#FEE187;" points="256,102.041 389.603,308.048 270.653,308.048 "/>
<polygon style="fill:#FFC61B;" points="256,382.707 283.582,308.048 256,102.041 228.417,308.048 "/>
<polygon style="fill:#EAA22F;" points="256,102.047 256,382.705 283.582,308.048 "/>
</svg>